<?xml version="1.0" encoding="utf-8"?>
<?xml-stylesheet type="text/xsl" href="rss1.xsl"?>
<rss version="2.0" xmlns:atom="http://www.w3.org/2005/Atom" xmlns:content="http://purl.org/rss/1.0/modules/content/" xmlns:dc="http://purl.org/dc/elements/1.1/" xmlns:media="http://search.yahoo.com/mrss/">
<channel>
 <title>Getty</title>
 <link>http://www.gettyimg.com/</link>
 <atom:link href="http://www.gettyimg.com/" rel="self" type="application/rss+xml" />

 
                <item>
                <title><![CDATA[【HD Live Performances】HDTV - Elton John &amp; Bernie Taupin - The Library of Congress Gershwin Prize for Popular Song HDTV MPEG2 1080i DD2.0-ilya2129]]></title>
                <link><![CDATA[https://sharemania.us/threads/elton-john-bernie-taupin-the-library-of-congress-gershwin-prize-for-popular-song-hdtv-mpeg2-1080i-dd2-0-ilya2129.243130/]]></link>
                <description><![CDATA[<article>
<blockquote class="messageText SelectQuoteContainer ugc baseHtml">
<div style="text-align: center"><img src="https://i123.fastpic.org/big/2024/0427/8a/144360a32b960c80f820afc5f3f4898a.png?r=1" class="bbCodeImage LbImage" alt="[​IMG]" data-url="https://i123.fastpic.org/big/2024/0427/8a/144360a32b960c80f820afc5f3f4898a.png?r=1" style=""><br>
<br>
<a href="https://postimg.cc/bs449Gkx" target="_blank" class="externalLink" rel="nofollow"><img src="https://i.postimg.cc/bs449Gkx/vlcsnap-2024-04-27-00h41m38s920.png" class="bbCodeImage LbImage" alt="[​IMG]" data-url="https://i.postimg.cc/bs449Gkx/vlcsnap-2024-04-27-00h41m38s920.png"></a> <a href="https://postimg.cc/R6PD6qvn" target="_blank" class="externalLink" rel="nofollow"><img src="https://i.postimg.cc/R6PD6qvn/vlcsnap-2024-04-27-00h41m40s513.png" class="bbCodeImage LbImage" alt="[​IMG]" data-url="https://i.postimg.cc/R6PD6qvn/vlcsnap-2024-04-27-00h41m40s513.png"></a> <a href="https://postimg.cc/bZbWCz9K" target="_blank" class="externalLink" rel="nofollow"><img src="https://i.postimg.cc/bZbWCz9K/vlcsnap-2024-04-27-00h41m42s039.png" class="bbCodeImage LbImage" alt="[​IMG]" data-url="https://i.postimg.cc/bZbWCz9K/vlcsnap-2024-04-27-00h41m42s039.png"></a> <a href="https://postimg.cc/R3L8mX8d" target="_blank" class="externalLink" rel="nofollow"><img src="https://i.postimg.cc/R3L8mX8d/vlcsnap-2024-04-27-00h41m43s521.png" class="bbCodeImage LbImage" alt="[​IMG]" data-url="https://i.postimg.cc/R3L8mX8d/vlcsnap-2024-04-27-00h41m43s521.png"></a> <a href="https://postimg.cc/HJgKFfSj" target="_blank" class="externalLink" rel="nofollow"><img src="https://i.postimg.cc/HJgKFfSj/vlcsnap-2024-04-27-00h41m45s309.png" class="bbCodeImage LbImage" alt="[​IMG]" data-url="https://i.postimg.cc/HJgKFfSj/vlcsnap-2024-04-27-00h41m45s309.png"></a> <a href="https://postimg.cc/R6CYZwxB" target="_blank" class="externalLink" rel="nofollow"><img src="https://i.postimg.cc/R6CYZwxB/vlcsnap-2024-04-27-00h41m53s270.png" class="bbCodeImage LbImage" alt="[​IMG]" data-url="https://i.postimg.cc/R6CYZwxB/vlcsnap-2024-04-27-00h41m53s270.png"></a> <a href="https://postimg.cc/30dbg7wf" target="_blank" class="externalLink" rel="nofollow"><img src="https://i.postimg.cc/30dbg7wf/vlcsnap-2024-04-27-00h41m55s223.png" class="bbCodeImage LbImage" alt="[​IMG]" data-url="https://i.postimg.cc/30dbg7wf/vlcsnap-2024-04-27-00h41m55s223.png"></a> <br>
<br>
At a tribute concert in Washington, D.C., musical artists from Metallica to Annie Lennox to former Gershwin honorees Garth Brooks and Joni Mitchell honored the songwriting duo Elton John and Bernie Taupin, who received the 2024 Library of Congress Gershwin Prize for Popular Song.<br>
Hosted by Billy Porter, the two-hour program covers the range of the duo’s best-known works, with Jacob Lusk of Gabriels raising the roof with “Bennie and the Jets” and Brooks singing ballads “Sorry Seems to Be the Hardest Word” and “Daniel.” Charlie Puth sings “Don’t Let the Sun Go Down on Me,” and Maren Morris offers her version of “I Guess That’s Why They Call It the Blues.” By special request of Librarian of Congress Carla Hayden, John sings the duo’s first hit, “Your Song,” with lyricist Taupin standing beside the piano, as the concert finale.<br>
​</div><br>
<div class="bbCodeBlock bbCodeCode">
<div class="type">Code:</div>
<pre>General
ID                                       : 1 (0x1)
Complete name                            : C:\Recordings\Elton John &amp; Bernie Taupin - The Library of Congress Gershwin Prize for Popular Song HDTV MPEG2 1080i DD2.0-ilya2129.ts
Format                                   : MPEG-TS
File size                                : 6.49 GiB
Duration                                 : 1 h 55 min
Overall bit rate mode                    : Variable
Overall bit rate                         : 8 066 kb/s
Frame rate                               : 29.970 FPS
Movie name                               : wrap:cea_708 side:cc_data

Video
ID                                       : 301 (0x12D)
Menu ID                                  : 1 (0x1)
Format                                   : MPEG Video
Format version                           : Version 2
Format profile                           : Main@High
Format settings                          : CustomMatrix / BVOP
Format settings, BVOP                    : Yes
Format settings, Matrix                  : Custom
Format settings, GOP                     : Variable
Format settings, picture structure       : Frame
Codec ID                                 : 2
Duration                                 : 1 h 55 min
Bit rate mode                            : Variable
Bit rate                                 : 7 151 kb/s
Maximum bit rate                         : 9 768 kb/s
Width                                    : 1 920 pixels
Height                                   : 1 080 pixels
Display aspect ratio                     : 16:9
Active Format Description                : Full frame 16:9 image
Frame rate                               : 29.970 (30000/1001) FPS
Color space                              : YUV
Chroma subsampling                       : 4:2:0
Bit depth                                : 8 bits
Scan type                                : Interlaced
Scan order                               : Top Field First
Compression mode                         : Lossy
Bits/(Pixel*Frame)                       : 0.115
Time code of first frame                 : 00:00:00;01
Time code source                         : Group of pictures header
GOP, Open/Closed                         : Open
Stream size                              : 5.75 GiB (89%)

Audio #1
ID                                       : 302 (0x12E)
Menu ID                                  : 1 (0x1)
Format                                   : AC-3
Format/Info                              : Audio Coding 3
Commercial name                          : Dolby Digital
Codec ID                                 : 129
Duration                                 : 1 h 55 min
Bit rate mode                            : Constant
Bit rate                                 : 384 kb/s
Channel(s)                               : 2 channels
Channel layout                           : L R
Sampling rate                            : 48.0 kHz
Frame rate                               : 31.250 FPS (1536 SPF)
Compression mode                         : Lossy
Delay relative to video                  : 2 ms
Stream size                              : 316 MiB (5%)
Language                                 : English
Service kind                             : Complete Main

Audio #2
ID                                       : 303 (0x12F)
Menu ID                                  : 1 (0x1)
Format                                   : AC-3
Format/Info                              : Audio Coding 3
Commercial name                          : Dolby Digital
Codec ID                                 : 129
Duration                                 : 1 h 55 min
Bit rate mode                            : Constant
Bit rate                                 : 128 kb/s
Channel(s)                               : 2 channels
Channel layout                           : L R
Sampling rate                            : 48.0 kHz
Frame rate                               : 31.250 FPS (1536 SPF)
Compression mode                         : Lossy
Delay relative to video                  : 2 ms
Stream size                              : 105 MiB (2%)
Language                                 : Spanish
Service kind                             : Complete Main

Text #1
ID                                       : 301 (0x12D)-CC1
Menu ID                                  : 1 (0x1)
Format                                   : EIA-608
Muxing mode                              : A/53 / DTVCC Transport
Muxing mode, more info                   : Muxed in Video #1
Duration                                 : 1 h 55 min
Duration of the visible content          : 1 h 55 min
Start time (commands)                    : 846 ms
Start time                               : 946 ms
End time                                 : 1 h 55 min
Bit rate mode                            : Constant
Stream size                              : 0.00 Byte (0%)
Count of frames before first event       : 29
Type of the first event                  : PaintOn

Text #2
ID                                       : 301 (0x12D)-1
Menu ID                                  : 1 (0x1)
Format                                   : EIA-708
Muxing mode                              : A/53 / DTVCC Transport
Muxing mode, more info                   : Muxed in Video #1
Duration                                 : 1 h 55 min
Bit rate mode                            : Constant
Stream size                              : 0.00 Byte (0%)



</pre>
</div><div style="text-align: center">
<div class="bbCodeBlock bbCodeVfcHH HiddenContent">
<div class="attribution type">Hidden Content:</div>
<blockquote>You must either reply or click 'Like' to see the hidden information contained here.</blockquote>
</div></div>
<div class="messageTextEndMarker">&nbsp;</div>
</blockquote>
</article>]]></description>
                <author><![CDATA[ilya2129]]></author>
                </item>

                
                <item>
                <title><![CDATA[【Albums (lossless)】FLAC - Janet Jackson - 20 Y.O. [Japan Edition] (2006) [FLAC EAC CDrip]]]></title>
                <link><![CDATA[https://sharemania.us/threads/janet-jackson-20-y-o-japan-edition-2006-flac-eac-cdrip.243128/]]></link>
                <description><![CDATA[<article>
<blockquote class="messageText SelectQuoteContainer ugc baseHtml">
<div style="text-align: center"><img src="https://i.discogs.com/jCcyoVq9L1VA0pwE0X5wp-isTj5ku3l4nxjlqFE7tw8/rs:fit/g:sm/q:90/h:545/w:600/czM6Ly9kaXNjb2dz/LWRhdGFiYXNlLWlt/YWdlcy9SLTg4MDc5/NS0xNDc1MjY4ODk0/LTQ1MzIuanBlZw.jpeg" class="bbCodeImage LbImage" alt="[​IMG]" data-url="https://i.discogs.com/jCcyoVq9L1VA0pwE0X5wp-isTj5ku3l4nxjlqFE7tw8/rs:fit/g:sm/q:90/h:545/w:600/czM6Ly9kaXNjb2dz/LWRhdGFiYXNlLWlt/YWdlcy9SLTg4MDc5/NS0xNDc1MjY4ODk0/LTQ1MzIuanBlZw.jpeg" style=""><br>
<b>Janet Jackson · 20 Y.O. [Japan Edition] <span style="font-size: 12px">(2006)</span><br>
<br>
<span style="font-size: 12px">Tracklist:</span></b><br>
1. 20 <span style="font-size: 12px">(Intro)</span><br>
2. So Excited <span style="font-size: 12px">(feat. Khia)</span><br>
3. Show Me<br>
4. Get It Out Me<br>
5. Do It 2 Me<br>
6. This Body<br>
7. 20 Part 2 <span style="font-size: 12px">(Interlude)</span><br>
8. With U<br>
9. Call On Me <span style="font-size: 12px">(with Nelly)</span><br>
10. 20 Part 3 <span style="font-size: 12px">(Interlude)</span><br>
11. Daybreak<br>
12. Enjoy<br>
13. 20 Part 4 <span style="font-size: 12px">(Interlude)</span><br>
14. Take Care<br>
15. Love 2 Love<br>
16. 20 Part 5 <span style="font-size: 12px">(Outro)</span><br>
<br>
<b><span style="font-size: 12px">Bonus tracks for Japan</span></b><br>
17. Roll Witchu<br>
18. Days Go By<br>
<br>
Includes 3 album covers (credits to steveyb.co.uk and Discogs)<br>
<div class="bbCodeBlock bbCodeVfcHH HiddenContent">
<div class="attribution type">Hidden Content:</div>
<blockquote>You must reply before you can see the hidden data contained here.</blockquote>
</div></div>
<div class="messageTextEndMarker">&nbsp;</div>
</blockquote>
</article>]]></description>
                <author><![CDATA[rsalguerop6]]></author>
                </item>

                
                <item>
                <title><![CDATA[【HD Live Performances】HDTV - Latin American Music Awards 2024 HDTV MPEG2 1080i DD2.0-ilya2129]]></title>
                <link><![CDATA[https://sharemania.us/threads/latin-american-music-awards-2024-hdtv-mpeg2-1080i-dd2-0-ilya2129.243129/]]></link>
                <description><![CDATA[<article>
<blockquote class="messageText SelectQuoteContainer ugc baseHtml">
<div style="text-align: center"><img src="https://i121.fastpic.org/big/2023/0421/68/3c5ec3a46d3b702b4d82a860bb0fc168.png?r=1" class="bbCodeImage LbImage" alt="[​IMG]" data-url="https://i121.fastpic.org/big/2023/0421/68/3c5ec3a46d3b702b4d82a860bb0fc168.png?r=1" style=""><br>
<br>
<a href="https://postimg.cc/620NH9t9" target="_blank" class="externalLink" rel="nofollow"><img src="https://i.postimg.cc/620NH9t9/vlcsnap-2024-04-27-00h35m15s934.png" class="bbCodeImage LbImage" alt="[​IMG]" data-url="https://i.postimg.cc/620NH9t9/vlcsnap-2024-04-27-00h35m15s934.png"></a> <a href="https://postimg.cc/KR4yNSV2" target="_blank" class="externalLink" rel="nofollow"><img src="https://i.postimg.cc/KR4yNSV2/vlcsnap-2024-04-27-00h35m17s727.png" class="bbCodeImage LbImage" alt="[​IMG]" data-url="https://i.postimg.cc/KR4yNSV2/vlcsnap-2024-04-27-00h35m17s727.png"></a> <a href="https://postimg.cc/RN8xpp5n" target="_blank" class="externalLink" rel="nofollow"><img src="https://i.postimg.cc/RN8xpp5n/vlcsnap-2024-04-27-00h35m20s875.png" class="bbCodeImage LbImage" alt="[​IMG]" data-url="https://i.postimg.cc/RN8xpp5n/vlcsnap-2024-04-27-00h35m20s875.png"></a> <a href="https://postimg.cc/Z0wSpKwH" target="_blank" class="externalLink" rel="nofollow"><img src="https://i.postimg.cc/Z0wSpKwH/vlcsnap-2024-04-27-00h35m24s444.png" class="bbCodeImage LbImage" alt="[​IMG]" data-url="https://i.postimg.cc/Z0wSpKwH/vlcsnap-2024-04-27-00h35m24s444.png"></a> <a href="https://postimg.cc/K38hwd8t" target="_blank" class="externalLink" rel="nofollow"><img src="https://i.postimg.cc/K38hwd8t/vlcsnap-2024-04-27-00h35m26s009.png" class="bbCodeImage LbImage" alt="[​IMG]" data-url="https://i.postimg.cc/K38hwd8t/vlcsnap-2024-04-27-00h35m26s009.png"></a> <a href="https://postimg.cc/RqSmWnLq" target="_blank" class="externalLink" rel="nofollow"><img src="https://i.postimg.cc/RqSmWnLq/vlcsnap-2024-04-27-00h35m27s678.png" class="bbCodeImage LbImage" alt="[​IMG]" data-url="https://i.postimg.cc/RqSmWnLq/vlcsnap-2024-04-27-00h35m27s678.png"></a> <br>
<br>
Thalía &amp; Deorro - "Te Va A Doler"<br>
Jay Wheeler &amp; Zhamira Zambrano - "Extrañándote"<br>
Justin Quiles, Lenny Tavárez, Sech, Dalex &amp; Dímelo Flow - "La Ranger" / "Quítenme El Teléfono"<br>
Ryan Castro - "El Cantante del Ghetto" / "Quema"<br>
Farruko &amp; Ky-Mani Marley - "Confía" / "Rasta Reggae (Jamming)"<br>
Gabito Ballesteros - "Lou Lou" / "El Boss"<br>
Marc Anthony - "Alé Alé"<br>
Carín León - "Cuando La Vida Sea Trago"<br>
Wisin &amp; Mora - "Bien Loco"<br>
Yng Lvcas - "Jimmy Choo"<br>
Yandel - "Caserío" / "Te Suelto El Pelo" / "Permítame" (with Jay Wheeler) / "Encantadora" (with Farruko) / "Yandel 150" (with Feid)<br>
Chino Pacas - "Tunechi" / "El Gordo Trae Al Mando"<br>
Anitta - "Double Team" with Brray / "Sábana"<br>
Becky G &amp; Oscar Maydon - "Mercedes"<br>
Morat - "Faltas Tú"<br>
Ricardo Montaner, Manuel Medrano, Thalía, Silvestre Dangond &amp; DJ Adoni - "Yo Que Te Amé" / "La Cima Del Cielo" / "Vamos Pa' La Conga"<br>
Jennifer Nettles &amp; Noel Schajris - "Love's Still Here"<br>
Peso Pluma &amp; Arcángel - "Peso Completo"<br>
Danny Ocean - "Cero condiciones"<br>
Feid &amp; Yandel - "Fecha" / "Brickell"<br>
Banda MS, A.B. Quintanilla, Carín León &amp; Los 2 de la S - "Tu Perfume" / "Somos Lo Que Somos" / "Ojos Cerrados" / "Es Viernes"<br>
Nacho, Venesti &amp; Milo Beat - "No Es Normal"<br>
​</div><br>
<div class="bbCodeBlock bbCodeCode">
<div class="type">Code:</div>
<pre>General
ID                                       : 1 (0x1)
Complete name                            : C:\Recordings\Latin American Music Awards 2024 HDTV MPEG2 1080i DD2.0-ilya2129.ts
Format                                   : MPEG-TS
File size                                : 10.8 GiB
Duration                                 : 2 h 22 min
Overall bit rate mode                    : Variable
Overall bit rate                         : 10.8 Mb/s
Frame rate                               : 29.970 FPS
Movie name                               : Latin American Music Awards
Law rating                               : TV-G

Video
ID                                       : 1121 (0x461)
Menu ID                                  : 1 (0x1)
Format                                   : MPEG Video
Format version                           : Version 2
Format profile                           : Main@High
Format settings                          : CustomMatrix / BVOP
Format settings, BVOP                    : Yes
Format settings, Matrix                  : Custom
Format settings, GOP                     : Variable
Format settings, picture structure       : Frame
Codec ID                                 : 2
Duration                                 : 2 h 22 min
Bit rate mode                            : Variable
Bit rate                                 : 9 816 kb/s
Maximum bit rate                         : 64.0 Mb/s
Width                                    : 1 280 pixels
Height                                   : 1 080 pixels
Display aspect ratio                     : 16:9
Active Format Description                : Full frame 16:9 image
Frame rate                               : 29.970 (30000/1001) FPS
Color space                              : YUV
Chroma subsampling                       : 4:2:0
Bit depth                                : 8 bits
Scan type                                : Interlaced
Scan order                               : Top Field First
Compression mode                         : Lossy
Bits/(Pixel*Frame)                       : 0.237
Time code of first frame                 : 00:00:00;00
Time code source                         : Group of pictures header
Stream size                              : 9.78 GiB (91%)

Audio #1
ID                                       : 1122 (0x462)
Menu ID                                  : 1 (0x1)
Format                                   : AC-3
Format/Info                              : Audio Coding 3
Commercial name                          : Dolby Digital
Codec ID                                 : 129
Duration                                 : 2 h 22 min
Bit rate mode                            : Constant
Bit rate                                 : 256 kb/s
Channel(s)                               : 6 channels
Channel layout                           : L R C LFE Ls Rs
Sampling rate                            : 48.0 kHz
Frame rate                               : 31.250 FPS (1536 SPF)
Compression mode                         : Lossy
Delay relative to video                  : 19 ms
Stream size                              : 261 MiB (2%)
Language                                 : English
Service kind                             : Complete Main

Audio #2
ID                                       : 1123 (0x463)
Menu ID                                  : 1 (0x1)
Format                                   : MPEG Audio
Format version                           : Version 1
Format profile                           : Layer 2
Codec ID                                 : 3
Duration                                 : 2 h 22 min
Bit rate mode                            : Constant
Bit rate                                 : 192 kb/s
Channel(s)                               : 2 channels
Sampling rate                            : 48.0 kHz
Frame rate                               : 41.667 FPS (1152 SPF)
Compression mode                         : Lossy
Delay relative to video                  : 18 ms
Stream size                              : 196 MiB (2%)
Language                                 : English

Text #1
ID                                       : 1121 (0x461)-CC1
Menu ID                                  : 1 (0x1)
Format                                   : EIA-608
Muxing mode                              : A/53 / DTVCC Transport
Muxing mode, more info                   : Muxed in Video #1
Duration                                 : 2 h 22 min
Duration of the visible content          : 2 h 22 min
Start time (commands)                    : 1 s 850 ms
Start time                               : 1 s 884 ms
End time                                 : 2 h 22 min
Bit rate mode                            : Constant
Stream size                              : 0.00 Byte (0%)
Type of the first event                  : RollUp

Text #2
ID                                       : 1121 (0x461)-CC3
Menu ID                                  : 1 (0x1)
Format                                   : EIA-608
Muxing mode                              : A/53 / DTVCC Transport
Muxing mode, more info                   : Muxed in Video #1
Duration                                 : 2 h 22 min
Duration of the visible content          : 2 h 22 min
Start time (commands)                    : 1 s 183 ms
Start time                               : 1 s 216 ms
End time                                 : 2 h 22 min
Bit rate mode                            : Constant
Stream size                              : 0.00 Byte (0%)
Type of the first event                  : RollUp

Text #3
ID                                       : 1121 (0x461)-1
Menu ID                                  : 1 (0x1)
Format                                   : EIA-708
Muxing mode                              : A/53 / DTVCC Transport
Muxing mode, more info                   : Muxed in Video #1
Duration                                 : 2 h 22 min
Bit rate mode                            : Constant
Stream size                              : 0.00 Byte (0%)

Text #4
ID                                       : 1121 (0x461)-2
Menu ID                                  : 1 (0x1)
Format                                   : EIA-708
Muxing mode                              : A/53 / DTVCC Transport
Muxing mode, more info                   : Muxed in Video #1
Duration                                 : 2 h 22 min
Bit rate mode                            : Constant
Stream size                              : 0.00 Byte (0%)

Text #5
ID                                       : 1121 (0x461)-3
Menu ID                                  : 1 (0x1)
Format                                   : EIA-708
Muxing mode                              : A/53 / DTVCC Transport
Muxing mode, more info                   : Muxed in Video #1
Duration                                 : 2 h 22 min
Bit rate mode                            : Constant
Stream size                              : 0.00 Byte (0%)

Text #6
ID                                       : 1121 (0x461)-4
Menu ID                                  : 1 (0x1)
Format                                   : EIA-708
Muxing mode                              : A/53 / DTVCC Transport
Muxing mode, more info                   : Muxed in Video #1
Duration                                 : 2 h 22 min
Bit rate mode                            : Constant
Stream size                              : 0.00 Byte (0%)

Text #7
ID                                       : 1121 (0x461)-5
Menu ID                                  : 1 (0x1)
Format                                   : EIA-708
Muxing mode                              : A/53 / DTVCC Transport
Muxing mode, more info                   : Muxed in Video #1
Duration                                 : 2 h 22 min
Bit rate mode                            : Constant
Stream size                              : 0.00 Byte (0%)

Text #8
ID                                       : 1121 (0x461)-6
Menu ID                                  : 1 (0x1)
Format                                   : EIA-708
Muxing mode                              : A/53 / DTVCC Transport
Muxing mode, more info                   : Muxed in Video #1
Duration                                 : 2 h 22 min
Bit rate mode                            : Constant
Stream size                              : 0.00 Byte (0%)


</pre>
</div><div style="text-align: center">
<div class="bbCodeBlock bbCodeVfcHH HiddenContent">
<div class="attribution type">Hidden Content:</div>
<blockquote>You must either reply or click 'Like' to see the hidden information contained here.</blockquote>
</div></div>
<div class="messageTextEndMarker">&nbsp;</div>
</blockquote>
</article>]]></description>
                <author><![CDATA[ilya2129]]></author>
                </item>

                </channel></rss>